ISO-10303-21;
HEADER;
/* Generated by software containing ST-Developer
 * from STEP Tools, Inc. (www.steptools.com) 
 */

FILE_DESCRIPTION(
/* description */ (''),
/* implementation_level */ '2;1');

FILE_NAME(
/* name */ 'WEIGHT PART.step',
/* time_stamp */ '2026-07-28T14:38:48+07:00',
/* author */ (''),
/* organization */ (''),
/* preprocessor_version */ 'ST-DEVELOPER v20.1',
/* originating_system */ 'Autodesk Translation Framework v15.8.0.0',
/* authorisation */ '');

FILE_SCHEMA (('AUTOMOTIVE_DESIGN { 1 0 10303 214 3 1 1 }'));
ENDSEC;

DATA;
#10=MECHANICAL_DESIGN_GEOMETRIC_PRESENTATION_REPRESENTATION('',(#13),#439);
#11=SHAPE_REPRESENTATION_RELATIONSHIP('SRR','None',#445,#12);
#12=ADVANCED_BREP_SHAPE_REPRESENTATION('',(#14),#438);
#13=STYLED_ITEM('',(#454),#14);
#14=MANIFOLD_SOLID_BREP('Body10',#257);
#15=FACE_BOUND('',#58,.T.);
#16=FACE_BOUND('',#59,.T.);
#17=FACE_BOUND('',#61,.T.);
#18=FACE_BOUND('',#62,.T.);
#19=PLANE('',#269);
#20=PLANE('',#273);
#21=PLANE('',#277);
#22=PLANE('',#281);
#23=PLANE('',#285);
#24=PLANE('',#286);
#25=CYLINDRICAL_SURFACE('',#262,1.25);
#26=CYLINDRICAL_SURFACE('',#267,1.25);
#27=CYLINDRICAL_SURFACE('',#270,20.);
#28=CYLINDRICAL_SURFACE('',#274,20.);
#29=CYLINDRICAL_SURFACE('',#278,20.);
#30=CYLINDRICAL_SURFACE('',#282,19.9999999999998);
#31=FACE_OUTER_BOUND('',#45,.T.);
#32=FACE_OUTER_BOUND('',#46,.T.);
#33=FACE_OUTER_BOUND('',#47,.T.);
#34=FACE_OUTER_BOUND('',#48,.T.);
#35=FACE_OUTER_BOUND('',#49,.T.);
#36=FACE_OUTER_BOUND('',#50,.T.);
#37=FACE_OUTER_BOUND('',#51,.T.);
#38=FACE_OUTER_BOUND('',#52,.T.);
#39=FACE_OUTER_BOUND('',#53,.T.);
#40=FACE_OUTER_BOUND('',#54,.T.);
#41=FACE_OUTER_BOUND('',#55,.T.);
#42=FACE_OUTER_BOUND('',#56,.T.);
#43=FACE_OUTER_BOUND('',#57,.T.);
#44=FACE_OUTER_BOUND('',#60,.T.);
#45=EDGE_LOOP('',(#173,#174,#175,#176));
#46=EDGE_LOOP('',(#177,#178,#179,#180));
#47=EDGE_LOOP('',(#181,#182,#183,#184));
#48=EDGE_LOOP('',(#185,#186,#187,#188));
#49=EDGE_LOOP('',(#189,#190,#191,#192));
#50=EDGE_LOOP('',(#193,#194,#195,#196));
#51=EDGE_LOOP('',(#197,#198,#199,#200));
#52=EDGE_LOOP('',(#201,#202,#203,#204));
#53=EDGE_LOOP('',(#205,#206,#207,#208));
#54=EDGE_LOOP('',(#209,#210,#211,#212));
#55=EDGE_LOOP('',(#213,#214,#215,#216));
#56=EDGE_LOOP('',(#217,#218,#219,#220));
#57=EDGE_LOOP('',(#221,#222,#223,#224,#225,#226,#227,#228));
#58=EDGE_LOOP('',(#229));
#59=EDGE_LOOP('',(#230));
#60=EDGE_LOOP('',(#231,#232,#233,#234,#235,#236,#237,#238));
#61=EDGE_LOOP('',(#239));
#62=EDGE_LOOP('',(#240));
#63=LINE('',#370,#83);
#64=LINE('',#374,#84);
#65=LINE('',#380,#85);
#66=LINE('',#384,#86);
#67=LINE('',#389,#87);
#68=LINE('',#391,#88);
#69=LINE('',#393,#89);
#70=LINE('',#394,#90);
#71=LINE('',#400,#91);
#72=LINE('',#403,#92);
#73=LINE('',#405,#93);
#74=LINE('',#406,#94);
#75=LINE('',#412,#95);
#76=LINE('',#415,#96);
#77=LINE('',#417,#97);
#78=LINE('',#418,#98);
#79=LINE('',#424,#99);
#80=LINE('',#427,#100);
#81=LINE('',#429,#101);
#82=LINE('',#430,#102);
#83=VECTOR('',#293,2.25);
#84=VECTOR('',#298,1.25);
#85=VECTOR('',#305,2.25);
#86=VECTOR('',#310,1.25);
#87=VECTOR('',#315,10.);
#88=VECTOR('',#316,10.);
#89=VECTOR('',#317,10.);
#90=VECTOR('',#318,10.);
#91=VECTOR('',#325,10.);
#92=VECTOR('',#328,10.);
#93=VECTOR('',#329,10.);
#94=VECTOR('',#330,10.);
#95=VECTOR('',#337,10.);
#96=VECTOR('',#340,10.);
#97=VECTOR('',#341,10.);
#98=VECTOR('',#342,10.);
#99=VECTOR('',#349,10.);
#100=VECTOR('',#352,10.);
#101=VECTOR('',#353,10.);
#102=VECTOR('',#354,10.);
#103=CIRCLE('',#260,3.25);
#104=CIRCLE('',#261,1.25);
#105=CIRCLE('',#263,1.25);
#106=CIRCLE('',#265,3.25);
#107=CIRCLE('',#266,1.25);
#108=CIRCLE('',#268,1.25);
#109=CIRCLE('',#271,20.);
#110=CIRCLE('',#272,20.);
#111=CIRCLE('',#275,20.);
#112=CIRCLE('',#276,20.);
#113=CIRCLE('',#279,20.);
#114=CIRCLE('',#280,20.);
#115=CIRCLE('',#283,19.9999999999998);
#116=CIRCLE('',#284,19.9999999999998);
#117=VERTEX_POINT('',#367);
#118=VERTEX_POINT('',#369);
#119=VERTEX_POINT('',#373);
#120=VERTEX_POINT('',#377);
#121=VERTEX_POINT('',#379);
#122=VERTEX_POINT('',#383);
#123=VERTEX_POINT('',#387);
#124=VERTEX_POINT('',#388);
#125=VERTEX_POINT('',#390);
#126=VERTEX_POINT('',#392);
#127=VERTEX_POINT('',#396);
#128=VERTEX_POINT('',#398);
#129=VERTEX_POINT('',#402);
#130=VERTEX_POINT('',#404);
#131=VERTEX_POINT('',#408);
#132=VERTEX_POINT('',#410);
#133=VERTEX_POINT('',#414);
#134=VERTEX_POINT('',#416);
#135=VERTEX_POINT('',#420);
#136=VERTEX_POINT('',#422);
#137=VERTEX_POINT('',#426);
#138=VERTEX_POINT('',#428);
#139=EDGE_CURVE('',#117,#117,#103,.T.);
#140=EDGE_CURVE('',#117,#118,#63,.T.);
#141=EDGE_CURVE('',#118,#118,#104,.T.);
#142=EDGE_CURVE('',#118,#119,#64,.T.);
#143=EDGE_CURVE('',#119,#119,#105,.T.);
#144=EDGE_CURVE('',#120,#120,#106,.T.);
#145=EDGE_CURVE('',#120,#121,#65,.T.);
#146=EDGE_CURVE('',#121,#121,#107,.T.);
#147=EDGE_CURVE('',#121,#122,#66,.T.);
#148=EDGE_CURVE('',#122,#122,#108,.T.);
#149=EDGE_CURVE('',#123,#124,#67,.T.);
#150=EDGE_CURVE('',#123,#125,#68,.T.);
#151=EDGE_CURVE('',#126,#125,#69,.T.);
#152=EDGE_CURVE('',#124,#126,#70,.T.);
#153=EDGE_CURVE('',#124,#127,#109,.T.);
#154=EDGE_CURVE('',#128,#126,#110,.T.);
#155=EDGE_CURVE('',#127,#128,#71,.T.);
#156=EDGE_CURVE('',#127,#129,#72,.T.);
#157=EDGE_CURVE('',#130,#128,#73,.T.);
#158=EDGE_CURVE('',#129,#130,#74,.T.);
#159=EDGE_CURVE('',#129,#131,#111,.T.);
#160=EDGE_CURVE('',#132,#130,#112,.T.);
#161=EDGE_CURVE('',#131,#132,#75,.T.);
#162=EDGE_CURVE('',#131,#133,#76,.T.);
#163=EDGE_CURVE('',#134,#132,#77,.T.);
#164=EDGE_CURVE('',#133,#134,#78,.T.);
#165=EDGE_CURVE('',#133,#135,#113,.T.);
#166=EDGE_CURVE('',#136,#134,#114,.T.);
#167=EDGE_CURVE('',#135,#136,#79,.T.);
#168=EDGE_CURVE('',#135,#137,#80,.T.);
#169=EDGE_CURVE('',#138,#136,#81,.T.);
#170=EDGE_CURVE('',#137,#138,#82,.T.);
#171=EDGE_CURVE('',#137,#123,#115,.T.);
#172=EDGE_CURVE('',#125,#138,#116,.T.);
#173=ORIENTED_EDGE('',*,*,#139,.F.);
#174=ORIENTED_EDGE('',*,*,#140,.T.);
#175=ORIENTED_EDGE('',*,*,#141,.T.);
#176=ORIENTED_EDGE('',*,*,#140,.F.);
#177=ORIENTED_EDGE('',*,*,#141,.F.);
#178=ORIENTED_EDGE('',*,*,#142,.T.);
#179=ORIENTED_EDGE('',*,*,#143,.F.);
#180=ORIENTED_EDGE('',*,*,#142,.F.);
#181=ORIENTED_EDGE('',*,*,#144,.F.);
#182=ORIENTED_EDGE('',*,*,#145,.T.);
#183=ORIENTED_EDGE('',*,*,#146,.T.);
#184=ORIENTED_EDGE('',*,*,#145,.F.);
#185=ORIENTED_EDGE('',*,*,#146,.F.);
#186=ORIENTED_EDGE('',*,*,#147,.T.);
#187=ORIENTED_EDGE('',*,*,#148,.F.);
#188=ORIENTED_EDGE('',*,*,#147,.F.);
#189=ORIENTED_EDGE('',*,*,#149,.F.);
#190=ORIENTED_EDGE('',*,*,#150,.T.);
#191=ORIENTED_EDGE('',*,*,#151,.F.);
#192=ORIENTED_EDGE('',*,*,#152,.F.);
#193=ORIENTED_EDGE('',*,*,#153,.F.);
#194=ORIENTED_EDGE('',*,*,#152,.T.);
#195=ORIENTED_EDGE('',*,*,#154,.F.);
#196=ORIENTED_EDGE('',*,*,#155,.F.);
#197=ORIENTED_EDGE('',*,*,#156,.F.);
#198=ORIENTED_EDGE('',*,*,#155,.T.);
#199=ORIENTED_EDGE('',*,*,#157,.F.);
#200=ORIENTED_EDGE('',*,*,#158,.F.);
#201=ORIENTED_EDGE('',*,*,#159,.F.);
#202=ORIENTED_EDGE('',*,*,#158,.T.);
#203=ORIENTED_EDGE('',*,*,#160,.F.);
#204=ORIENTED_EDGE('',*,*,#161,.F.);
#205=ORIENTED_EDGE('',*,*,#162,.F.);
#206=ORIENTED_EDGE('',*,*,#161,.T.);
#207=ORIENTED_EDGE('',*,*,#163,.F.);
#208=ORIENTED_EDGE('',*,*,#164,.F.);
#209=ORIENTED_EDGE('',*,*,#165,.F.);
#210=ORIENTED_EDGE('',*,*,#164,.T.);
#211=ORIENTED_EDGE('',*,*,#166,.F.);
#212=ORIENTED_EDGE('',*,*,#167,.F.);
#213=ORIENTED_EDGE('',*,*,#168,.F.);
#214=ORIENTED_EDGE('',*,*,#167,.T.);
#215=ORIENTED_EDGE('',*,*,#169,.F.);
#216=ORIENTED_EDGE('',*,*,#170,.F.);
#217=ORIENTED_EDGE('',*,*,#171,.F.);
#218=ORIENTED_EDGE('',*,*,#170,.T.);
#219=ORIENTED_EDGE('',*,*,#172,.F.);
#220=ORIENTED_EDGE('',*,*,#150,.F.);
#221=ORIENTED_EDGE('',*,*,#172,.T.);
#222=ORIENTED_EDGE('',*,*,#169,.T.);
#223=ORIENTED_EDGE('',*,*,#166,.T.);
#224=ORIENTED_EDGE('',*,*,#163,.T.);
#225=ORIENTED_EDGE('',*,*,#160,.T.);
#226=ORIENTED_EDGE('',*,*,#157,.T.);
#227=ORIENTED_EDGE('',*,*,#154,.T.);
#228=ORIENTED_EDGE('',*,*,#151,.T.);
#229=ORIENTED_EDGE('',*,*,#139,.T.);
#230=ORIENTED_EDGE('',*,*,#144,.T.);
#231=ORIENTED_EDGE('',*,*,#171,.T.);
#232=ORIENTED_EDGE('',*,*,#149,.T.);
#233=ORIENTED_EDGE('',*,*,#153,.T.);
#234=ORIENTED_EDGE('',*,*,#156,.T.);
#235=ORIENTED_EDGE('',*,*,#159,.T.);
#236=ORIENTED_EDGE('',*,*,#162,.T.);
#237=ORIENTED_EDGE('',*,*,#165,.T.);
#238=ORIENTED_EDGE('',*,*,#168,.T.);
#239=ORIENTED_EDGE('',*,*,#143,.T.);
#240=ORIENTED_EDGE('',*,*,#148,.T.);
#241=CONICAL_SURFACE('',#259,2.25,0.927642497434986);
#242=CONICAL_SURFACE('',#264,2.25,0.927642497434986);
#243=ADVANCED_FACE('',(#31),#241,.F.);
#244=ADVANCED_FACE('',(#32),#25,.F.);
#245=ADVANCED_FACE('',(#33),#242,.F.);
#246=ADVANCED_FACE('',(#34),#26,.F.);
#247=ADVANCED_FACE('',(#35),#19,.T.);
#248=ADVANCED_FACE('',(#36),#27,.T.);
#249=ADVANCED_FACE('',(#37),#20,.T.);
#250=ADVANCED_FACE('',(#38),#28,.T.);
#251=ADVANCED_FACE('',(#39),#21,.T.);
#252=ADVANCED_FACE('',(#40),#29,.T.);
#253=ADVANCED_FACE('',(#41),#22,.T.);
#254=ADVANCED_FACE('',(#42),#30,.T.);
#255=ADVANCED_FACE('',(#43,#15,#16),#23,.T.);
#256=ADVANCED_FACE('',(#44,#17,#18),#24,.F.);
#257=CLOSED_SHELL('',(#243,#244,#245,#246,#247,#248,#249,#250,#251,#252,
#253,#254,#255,#256));
#258=AXIS2_PLACEMENT_3D('',#365,#287,#288);
#259=AXIS2_PLACEMENT_3D('',#366,#289,#290);
#260=AXIS2_PLACEMENT_3D('',#368,#291,#292);
#261=AXIS2_PLACEMENT_3D('',#371,#294,#295);
#262=AXIS2_PLACEMENT_3D('',#372,#296,#297);
#263=AXIS2_PLACEMENT_3D('',#375,#299,#300);
#264=AXIS2_PLACEMENT_3D('',#376,#301,#302);
#265=AXIS2_PLACEMENT_3D('',#378,#303,#304);
#266=AXIS2_PLACEMENT_3D('',#381,#306,#307);
#267=AXIS2_PLACEMENT_3D('',#382,#308,#309);
#268=AXIS2_PLACEMENT_3D('',#385,#311,#312);
#269=AXIS2_PLACEMENT_3D('',#386,#313,#314);
#270=AXIS2_PLACEMENT_3D('',#395,#319,#320);
#271=AXIS2_PLACEMENT_3D('',#397,#321,#322);
#272=AXIS2_PLACEMENT_3D('',#399,#323,#324);
#273=AXIS2_PLACEMENT_3D('',#401,#326,#327);
#274=AXIS2_PLACEMENT_3D('',#407,#331,#332);
#275=AXIS2_PLACEMENT_3D('',#409,#333,#334);
#276=AXIS2_PLACEMENT_3D('',#411,#335,#336);
#277=AXIS2_PLACEMENT_3D('',#413,#338,#339);
#278=AXIS2_PLACEMENT_3D('',#419,#343,#344);
#279=AXIS2_PLACEMENT_3D('',#421,#345,#346);
#280=AXIS2_PLACEMENT_3D('',#423,#347,#348);
#281=AXIS2_PLACEMENT_3D('',#425,#350,#351);
#282=AXIS2_PLACEMENT_3D('',#431,#355,#356);
#283=AXIS2_PLACEMENT_3D('',#432,#357,#358);
#284=AXIS2_PLACEMENT_3D('',#433,#359,#360);
#285=AXIS2_PLACEMENT_3D('',#434,#361,#362);
#286=AXIS2_PLACEMENT_3D('',#435,#363,#364);
#287=DIRECTION('axis',(0.,0.,1.));
#288=DIRECTION('refdir',(1.,0.,0.));
#289=DIRECTION('center_axis',(0.,0.,1.));
#290=DIRECTION('ref_axis',(1.,0.,0.));
#291=DIRECTION('center_axis',(0.,0.,-1.));
#292=DIRECTION('ref_axis',(1.,0.,0.));
#293=DIRECTION('',(0.800208319414635,-9.79972557022215E-17,-0.599722140277984));
#294=DIRECTION('center_axis',(0.,0.,-1.));
#295=DIRECTION('ref_axis',(1.,0.,0.));
#296=DIRECTION('center_axis',(0.,0.,-1.));
#297=DIRECTION('ref_axis',(1.,0.,0.));
#298=DIRECTION('',(0.,0.,-1.));
#299=DIRECTION('center_axis',(0.,0.,1.));
#300=DIRECTION('ref_axis',(1.,0.,0.));
#301=DIRECTION('center_axis',(0.,0.,1.));
#302=DIRECTION('ref_axis',(1.,0.,0.));
#303=DIRECTION('center_axis',(0.,0.,-1.));
#304=DIRECTION('ref_axis',(1.,0.,0.));
#305=DIRECTION('',(0.800208319414635,-9.79972557022215E-17,-0.599722140277984));
#306=DIRECTION('center_axis',(0.,0.,-1.));
#307=DIRECTION('ref_axis',(1.,0.,0.));
#308=DIRECTION('center_axis',(0.,0.,-1.));
#309=DIRECTION('ref_axis',(1.,0.,0.));
#310=DIRECTION('',(0.,0.,-1.));
#311=DIRECTION('center_axis',(0.,0.,1.));
#312=DIRECTION('ref_axis',(1.,0.,0.));
#313=DIRECTION('center_axis',(-5.30439003881058E-17,-1.,0.));
#314=DIRECTION('ref_axis',(1.,-5.30439003881058E-17,0.));
#315=DIRECTION('',(-1.,5.30439003881058E-17,0.));
#316=DIRECTION('',(0.,0.,1.));
#317=DIRECTION('',(1.,-5.30439003881058E-17,0.));
#318=DIRECTION('',(0.,0.,1.));
#319=DIRECTION('center_axis',(0.,0.,1.));
#320=DIRECTION('ref_axis',(-1.,4.44089209850063E-16,0.));
#321=DIRECTION('center_axis',(0.,0.,-1.));
#322=DIRECTION('ref_axis',(-1.,4.44089209850063E-16,0.));
#323=DIRECTION('center_axis',(0.,0.,1.));
#324=DIRECTION('ref_axis',(-1.,4.44089209850063E-16,0.));
#325=DIRECTION('',(0.,0.,1.));
#326=DIRECTION('center_axis',(-1.,0.,0.));
#327=DIRECTION('ref_axis',(0.,-1.,0.));
#328=DIRECTION('',(0.,1.,0.));
#329=DIRECTION('',(0.,-1.,0.));
#330=DIRECTION('',(0.,0.,1.));
#331=DIRECTION('center_axis',(0.,0.,1.));
#332=DIRECTION('ref_axis',(2.66453525910038E-15,1.,0.));
#333=DIRECTION('center_axis',(0.,0.,-1.));
#334=DIRECTION('ref_axis',(2.66453525910038E-15,1.,0.));
#335=DIRECTION('center_axis',(0.,0.,1.));
#336=DIRECTION('ref_axis',(2.66453525910038E-15,1.,0.));
#337=DIRECTION('',(0.,0.,1.));
#338=DIRECTION('center_axis',(0.,1.,0.));
#339=DIRECTION('ref_axis',(-1.,0.,0.));
#340=DIRECTION('',(1.,0.,0.));
#341=DIRECTION('',(-1.,0.,0.));
#342=DIRECTION('',(0.,0.,1.));
#343=DIRECTION('center_axis',(0.,0.,1.));
#344=DIRECTION('ref_axis',(1.,-5.55111512312579E-16,0.));
#345=DIRECTION('center_axis',(0.,0.,-1.));
#346=DIRECTION('ref_axis',(1.,-5.55111512312579E-16,0.));
#347=DIRECTION('center_axis',(0.,0.,1.));
#348=DIRECTION('ref_axis',(1.,-5.55111512312579E-16,0.));
#349=DIRECTION('',(0.,0.,1.));
#350=DIRECTION('center_axis',(1.,0.,0.));
#351=DIRECTION('ref_axis',(0.,1.,0.));
#352=DIRECTION('',(0.,-1.,0.));
#353=DIRECTION('',(0.,1.,0.));
#354=DIRECTION('',(0.,0.,1.));
#355=DIRECTION('center_axis',(0.,0.,1.));
#356=DIRECTION('ref_axis',(8.88178419700135E-16,-1.,0.));
#357=DIRECTION('center_axis',(0.,0.,-1.));
#358=DIRECTION('ref_axis',(8.88178419700135E-16,-1.,0.));
#359=DIRECTION('center_axis',(0.,0.,1.));
#360=DIRECTION('ref_axis',(8.88178419700135E-16,-1.,0.));
#361=DIRECTION('center_axis',(0.,0.,1.));
#362=DIRECTION('ref_axis',(-1.,0.,0.));
#363=DIRECTION('center_axis',(0.,0.,1.));
#364=DIRECTION('ref_axis',(-1.,0.,0.));
#365=CARTESIAN_POINT('',(0.,0.,0.));
#366=CARTESIAN_POINT('Origin',(125.581605029268,3.28626015289046E-13,-10.7494575171584));
#367=CARTESIAN_POINT('',(122.331605029268,3.29024025498769E-13,-10.));
#368=CARTESIAN_POINT('Origin',(125.581605029268,3.28626015289046E-13,-10.));
#369=CARTESIAN_POINT('',(124.331605029268,3.2877909613894E-13,-11.4989150343168));
#370=CARTESIAN_POINT('',(123.331605029268,3.28901560818854E-13,-10.7494575171584));
#371=CARTESIAN_POINT('Origin',(125.581605029268,3.28626015289046E-13,-11.4989150343168));
#372=CARTESIAN_POINT('Origin',(125.581605029268,3.28626015289046E-13,-12.5));
#373=CARTESIAN_POINT('',(124.331605029268,3.28472934439153E-13,-13.));
#374=CARTESIAN_POINT('',(124.331605029268,3.2877909613894E-13,-12.5));
#375=CARTESIAN_POINT('Origin',(125.581605029268,3.28626015289046E-13,-13.));
#376=CARTESIAN_POINT('Origin',(-125.581605029268,-1.11022302462516E-14,
-10.7494575171584));
#377=CARTESIAN_POINT('',(-128.831605029268,-1.07042200365287E-14,-10.));
#378=CARTESIAN_POINT('Origin',(-125.581605029268,-1.11022302462516E-14,
-10.));
#379=CARTESIAN_POINT('',(-126.831605029268,-1.09491493963581E-14,-11.4989150343168));
#380=CARTESIAN_POINT('',(-127.831605029268,-1.08266847164434E-14,-10.7494575171584));
#381=CARTESIAN_POINT('Origin',(-125.581605029268,-1.11022302462516E-14,
-11.4989150343168));
#382=CARTESIAN_POINT('Origin',(-125.581605029268,-1.11022302462516E-14,
-12.5));
#383=CARTESIAN_POINT('',(-126.831605029268,-1.1255311096145E-14,-13.));
#384=CARTESIAN_POINT('',(-126.831605029268,-1.09491493963581E-14,-12.5));
#385=CARTESIAN_POINT('Origin',(-125.581605029268,-1.11022302462516E-14,
-13.));
#386=CARTESIAN_POINT('Origin',(-125.581605029268,-32.5508929075668,-13.));
#387=CARTESIAN_POINT('',(125.581605029268,-32.5508929075668,-13.));
#388=CARTESIAN_POINT('',(-125.581605029268,-32.5508929075668,-13.));
#389=CARTESIAN_POINT('',(-125.581605029268,-32.5508929075668,-13.));
#390=CARTESIAN_POINT('',(125.581605029268,-32.5508929075668,-10.));
#391=CARTESIAN_POINT('',(125.581605029268,-32.5508929075668,-13.));
#392=CARTESIAN_POINT('',(-125.581605029268,-32.5508929075668,-10.));
#393=CARTESIAN_POINT('',(-125.581605029268,-32.5508929075668,-10.));
#394=CARTESIAN_POINT('',(-125.581605029268,-32.5508929075668,-13.));
#395=CARTESIAN_POINT('Origin',(-125.581605029268,-12.5508929075668,-13.));
#396=CARTESIAN_POINT('',(-145.581605029268,-12.5508929075668,-13.));
#397=CARTESIAN_POINT('Origin',(-125.581605029268,-12.5508929075668,-13.));
#398=CARTESIAN_POINT('',(-145.581605029268,-12.5508929075668,-10.));
#399=CARTESIAN_POINT('Origin',(-125.581605029268,-12.5508929075668,-10.));
#400=CARTESIAN_POINT('',(-145.581605029268,-12.5508929075668,-13.));
#401=CARTESIAN_POINT('Origin',(-145.581605029268,12.5508929075668,-13.));
#402=CARTESIAN_POINT('',(-145.581605029268,12.5508929075668,-13.));
#403=CARTESIAN_POINT('',(-145.581605029268,12.5508929075668,-13.));
#404=CARTESIAN_POINT('',(-145.581605029268,12.5508929075668,-10.));
#405=CARTESIAN_POINT('',(-145.581605029268,12.5508929075668,-10.));
#406=CARTESIAN_POINT('',(-145.581605029268,12.5508929075668,-13.));
#407=CARTESIAN_POINT('Origin',(-125.581605029268,12.5508929075668,-13.));
#408=CARTESIAN_POINT('',(-125.581605029268,32.5508929075668,-13.));
#409=CARTESIAN_POINT('Origin',(-125.581605029268,12.5508929075668,-13.));
#410=CARTESIAN_POINT('',(-125.581605029268,32.5508929075668,-10.));
#411=CARTESIAN_POINT('Origin',(-125.581605029268,12.5508929075668,-10.));
#412=CARTESIAN_POINT('',(-125.581605029268,32.5508929075668,-13.));
#413=CARTESIAN_POINT('Origin',(125.581605029268,32.5508929075668,-13.));
#414=CARTESIAN_POINT('',(125.581605029268,32.5508929075668,-13.));
#415=CARTESIAN_POINT('',(125.581605029268,32.5508929075668,-13.));
#416=CARTESIAN_POINT('',(125.581605029268,32.5508929075668,-10.));
#417=CARTESIAN_POINT('',(125.581605029268,32.5508929075668,-10.));
#418=CARTESIAN_POINT('',(125.581605029268,32.5508929075668,-13.));
#419=CARTESIAN_POINT('Origin',(125.581605029268,12.5508929075668,-13.));
#420=CARTESIAN_POINT('',(145.581605029268,12.5508929075668,-13.));
#421=CARTESIAN_POINT('Origin',(125.581605029268,12.5508929075668,-13.));
#422=CARTESIAN_POINT('',(145.581605029268,12.5508929075668,-10.));
#423=CARTESIAN_POINT('Origin',(125.581605029268,12.5508929075668,-10.));
#424=CARTESIAN_POINT('',(145.581605029268,12.5508929075668,-13.));
#425=CARTESIAN_POINT('Origin',(145.581605029268,-12.5508929075668,-13.));
#426=CARTESIAN_POINT('',(145.581605029268,-12.5508929075668,-13.));
#427=CARTESIAN_POINT('',(145.581605029268,-12.5508929075668,-13.));
#428=CARTESIAN_POINT('',(145.581605029268,-12.5508929075668,-10.));
#429=CARTESIAN_POINT('',(145.581605029268,-12.5508929075668,-10.));
#430=CARTESIAN_POINT('',(145.581605029268,-12.5508929075668,-13.));
#431=CARTESIAN_POINT('Origin',(125.581605029268,-12.550892907567,-13.));
#432=CARTESIAN_POINT('Origin',(125.581605029268,-12.550892907567,-13.));
#433=CARTESIAN_POINT('Origin',(125.581605029268,-12.550892907567,-10.));
#434=CARTESIAN_POINT('Origin',(0.,0.,-10.));
#435=CARTESIAN_POINT('Origin',(0.,0.,-13.));
#436=UNCERTAINTY_MEASURE_WITH_UNIT(LENGTH_MEASURE(0.01),#440,
'DISTANCE_ACCURACY_VALUE',
'Maximum model space distance between geometric entities at asserted c
onnectivities');
#437=UNCERTAINTY_MEASURE_WITH_UNIT(LENGTH_MEASURE(0.01),#440,
'DISTANCE_ACCURACY_VALUE',
'Maximum model space distance between geometric entities at asserted c
onnectivities');
#438=(
GEOMETRIC_REPRESENTATION_CONTEXT(3)
GLOBAL_UNCERTAINTY_ASSIGNED_CONTEXT((#436))
GLOBAL_UNIT_ASSIGNED_CONTEXT((#440,#441,#442))
REPRESENTATION_CONTEXT('','3D')
);
#439=(
GEOMETRIC_REPRESENTATION_CONTEXT(3)
GLOBAL_UNCERTAINTY_ASSIGNED_CONTEXT((#437))
GLOBAL_UNIT_ASSIGNED_CONTEXT((#440,#441,#442))
REPRESENTATION_CONTEXT('','3D')
);
#440=(
LENGTH_UNIT()
NAMED_UNIT(*)
SI_UNIT(.MILLI.,.METRE.)
);
#441=(
NAMED_UNIT(*)
PLANE_ANGLE_UNIT()
SI_UNIT($,.RADIAN.)
);
#442=(
NAMED_UNIT(*)
SI_UNIT($,.STERADIAN.)
SOLID_ANGLE_UNIT()
);
#443=SHAPE_DEFINITION_REPRESENTATION(#444,#445);
#444=PRODUCT_DEFINITION_SHAPE('',$,#447);
#445=SHAPE_REPRESENTATION('',(#258),#438);
#446=PRODUCT_DEFINITION_CONTEXT('part definition',#451,'design');
#447=PRODUCT_DEFINITION('Untitled','Untitled v16',#448,#446);
#448=PRODUCT_DEFINITION_FORMATION('',$,#453);
#449=PRODUCT_RELATED_PRODUCT_CATEGORY('Untitled v16','Untitled v16',(#453));
#450=APPLICATION_PROTOCOL_DEFINITION('international standard',
'automotive_design',2009,#451);
#451=APPLICATION_CONTEXT(
'Core Data for Automotive Mechanical Design Process');
#452=PRODUCT_CONTEXT('part definition',#451,'mechanical');
#453=PRODUCT('Untitled','Untitled v16',$,(#452));
#454=PRESENTATION_STYLE_ASSIGNMENT((#458));
#455=PRESENTATION_STYLE_ASSIGNMENT((#459));
#456=PRESENTATION_STYLE_ASSIGNMENT((#460));
#457=PRESENTATION_STYLE_ASSIGNMENT((#461));
#458=SURFACE_STYLE_USAGE(.BOTH.,#462);
#459=SURFACE_STYLE_USAGE(.BOTH.,#463);
#460=SURFACE_STYLE_USAGE(.BOTH.,#464);
#461=SURFACE_STYLE_USAGE(.BOTH.,#465);
#462=SURFACE_SIDE_STYLE('',(#466));
#463=SURFACE_SIDE_STYLE('',(#467));
#464=SURFACE_SIDE_STYLE('',(#468));
#465=SURFACE_SIDE_STYLE('',(#469));
#466=SURFACE_STYLE_FILL_AREA(#470);
#467=SURFACE_STYLE_FILL_AREA(#471);
#468=SURFACE_STYLE_FILL_AREA(#472);
#469=SURFACE_STYLE_FILL_AREA(#473);
#470=FILL_AREA_STYLE('Steel - Satin',(#474));
#471=FILL_AREA_STYLE('Steel - Satin',(#475));
#472=FILL_AREA_STYLE('Steel - Satin (2) (1)',(#476));
#473=FILL_AREA_STYLE('Steel - Satin (2)',(#477));
#474=FILL_AREA_STYLE_COLOUR('Steel - Satin',#478);
#475=FILL_AREA_STYLE_COLOUR('Steel - Satin',#479);
#476=FILL_AREA_STYLE_COLOUR('Steel - Satin (2) (1)',#480);
#477=FILL_AREA_STYLE_COLOUR('Steel - Satin (2)',#481);
#478=COLOUR_RGB('Steel - Satin',0.627450980392157,0.627450980392157,0.627450980392157);
#479=COLOUR_RGB('Steel - Satin',0.831372549019608,0.,0.);
#480=COLOUR_RGB('Steel - Satin (2) (1)',0.505882352941176,0.847058823529412,
0.815686274509804);
#481=COLOUR_RGB('Steel - Satin (2)',1.,1.,0.533333333333333);
ENDSEC;
END-ISO-10303-21;
